# xmcd
#
# Track frame offsets:
#	150
#	16222
#	34640
#	45566
#	69745
#	82138
#	101866
#	121245
#	150136
# Disc length: 2252 seconds
# Revision: 1
# Processed by: cddbd v1.5.1PL2 Copyright (c) Steve Scherf et al.
#
# Submitted via: libkcddb 0.3
#
DISCID=6808ca09
DTITLE=Buck Wildstar - Buck Wildstar
DYEAR=2003
DGENRE=
TTITLE0=I've been watching you
TTITLE1=You talk too much
TTITLE2=King of the Road
TTITLE3=Chickenheads
TTITLE4=Trouble Girl
TTITLE5=You gotta move (When I'm bad)
TTITLE6=In the mood
TTITLE7=Lights are on
TTITLE8=Georgia Shoes
EXTD=
EXTT0=
EXTT1=
EXTT2=
EXTT3=
EXTT4=
EXTT5=
EXTT6=
EXTT7=
EXTT8=
PLAYORDER=
